<?xml version="1.0" standalone="no"?>
<!DOCTYPE svg PUBLIC "-//W3C//DTD SVG 20010904//EN"
 "http://www.w3.org/TR/2001/REC-SVG-20010904/DTD/svg10.dtd">
<svg version="1.0" xmlns="http://www.w3.org/2000/svg"
 width="512.000000pt" height="512.000000pt" viewBox="0 0 512.000000 512.000000"
 preserveAspectRatio="xMidYMid meet">
<metadata>
Created by potrace 1.11, written by Peter Selinger 2001-2013
</metadata>
<g transform="translate(0.000000,512.000000) scale(0.100000,-0.100000)"
fill="#000000" stroke="none">
<path d="M1414 5064 c-20 -32 -48 -89 -62 -128 -22 -65 -24 -81 -19 -191 6
-138 14 -164 131 -468 100 -258 120 -341 113 -472 -5 -111 -23 -169 -82 -261
l-35 -54 185 0 184 0 25 33 c78 103 114 241 96 380 -13 108 -31 166 -129 420
-43 111 -86 231 -95 267 -26 102 -31 223 -12 305 16 64 74 186 96 200 32 20
-6 25 -174 25 l-184 0 -38 -56z"/>
<path d="M2322 5071 c-18 -26 -45 -77 -60 -112 -24 -58 -27 -76 -26 -184 0
-147 7 -175 123 -480 115 -300 116 -305 116 -460 0 -145 -15 -198 -80 -295
l-34 -50 187 0 187 0 32 48 c46 69 61 103 78 174 34 147 12 263 -113 590 -97
251 -118 324 -128 433 -10 118 30 256 103 353 l24 32 -188 0 -188 0 -33 -49z"/>
<path d="M3225 5073 c-19 -27 -47 -82 -62 -123 -24 -65 -28 -89 -27 -180 1
-131 16 -187 127 -475 106 -277 121 -332 121 -460 1 -116 -22 -197 -79 -284
-19 -29 -35 -55 -35 -57 0 -2 83 -4 184 -4 l184 0 36 54 c52 79 86 188 86 281
0 116 -24 210 -112 440 -120 311 -129 343 -135 473 -7 139 9 209 72 312 l44
70 -184 0 -185 0 -35 -47z"/>
<path d="M760 3170 c-229 -29 -422 -215 -461 -443 -38 -225 84 -463 288 -564
l73 -36 0 -154 c0 -84 -1 -153 -3 -153 -2 0 -83 20 -180 45 -197 50 -212 51
-284 30 -216 -64 -251 -366 -56 -486 17 -11 141 -48 275 -83 l243 -63 6 -364
c6 -406 10 -435 77 -564 53 -102 173 -221 274 -269 146 -70 70 -67 1566 -64
l1347 3 82 32 c148 57 265 156 337 286 68 124 70 132 76 551 l5 379 240 62
c304 78 305 78 358 125 118 104 119 295 1 399 -44 39 -124 71 -175 71 -16 0
-117 -23 -225 -50 -108 -28 -198 -50 -200 -50 -2 0 -4 71 -4 158 l0 157 70 33
c79 37 173 119 220 192 55 86 82 181 82 290 0 169 -61 299 -196 412 -81 68
-170 106 -280 119 -94 10 -3472 10 -3556 -1z m3567 -420 c81 -49 83 -163 4
-219 l-29 -21 -1757 0 c-1608 0 -1759 1 -1785 16 -38 23 -60 64 -60 113 0 49
22 86 65 112 29 18 93 19 1780 19 1718 0 1751 0 1782 -20z m-307 -1407 c0
-741 -1 -759 -21 -803 -25 -56 -53 -86 -104 -113 l-40 -22 -1310 0 -1310 0
-40 22 c-22 11 -52 34 -67 50 -60 63 -58 32 -58 863 l0 760 1475 0 1475 0 0
-757z"/>
</g>
</svg>
