<?xml version="1.0" encoding="iso-8859-1"?>
<!-- Generator: Adobe Illustrator 19.0.0, SVG Export Plug-In . SVG Version: 6.00 Build 0)  -->
<svg version="1.1" id="Capa_1" xmlns="http://www.w3.org/2000/svg" xmlns:xlink="http://www.w3.org/1999/xlink" x="0px" y="0px"
	 viewBox="0 0 76.16 76.16" style="enable-background:new 0 0 76.16 76.16;" xml:space="preserve">
<g>
	<path d="M21.637,24.291c1.852,0,3.702,0,5.552,0c6.664-8.097-6.663-16.194,0-24.291c-1.85,0-3.7,0-5.552,0
		C14.973,8.096,28.301,16.194,21.637,24.291z"/>
	<path d="M35.064,24.291c1.852,0,3.702,0,5.553,0c6.664-8.097-6.664-16.194,0-24.291c-1.851,0-3.701,0-5.553,0
		C28.4,8.096,41.728,16.194,35.064,24.291z"/>
	<path d="M48.492,24.291c1.852,0,3.701,0,5.553,0c6.664-8.097-6.664-16.194,0-24.291c-1.852,0-3.701,0-5.553,0
		C41.828,8.096,55.156,16.194,48.492,24.291z"/>
	<path d="M71.098,47.897l-5.308,1.368v-4.76c3.219-1.027,5.557-4.045,5.557-7.6c0-4.4-3.579-7.979-7.979-7.979H12.313
		c-4.4,0-7.979,3.58-7.979,7.979c0,3.555,2.338,6.57,5.556,7.6v4.637l-4.828-1.245c-2.14-0.552-4.321,0.733-4.873,2.874
		c-0.552,2.139,0.734,4.32,2.874,4.871l6.827,1.763v9.479c0,5.114,4.161,9.276,9.276,9.276h37.35c5.114,0,9.276-4.162,9.276-9.276
		v-9.356l7.305-1.886c2.14-0.551,3.426-2.732,2.874-4.871C75.417,48.631,73.233,47.346,71.098,47.897z M12.313,34.928h51.056
		c1.092,0,1.979,0.888,1.979,1.979s-0.888,1.979-1.979,1.979H12.313c-1.091,0-1.979-0.888-1.979-1.979
		C10.333,35.816,11.222,34.928,12.313,34.928z M56.515,70.162h-37.35c-1.807,0-3.276-1.47-3.276-3.277V44.887H59.79v21.998
		C59.791,68.692,58.322,70.162,56.515,70.162z"/>
</g>
<g>
</g>
<g>
</g>
<g>
</g>
<g>
</g>
<g>
</g>
<g>
</g>
<g>
</g>
<g>
</g>
<g>
</g>
<g>
</g>
<g>
</g>
<g>
</g>
<g>
</g>
<g>
</g>
<g>
</g>
</svg>
